# xmcd
#
# Track frame offsets: 
#        150
#        21111
#        36722
#        52670
#        74617
#        97406
#        115376
#        132241
#        143885
#        161749
#        180136
#        194564
#        205547
#        226685
#        241081
#        263028
#        275250
#        297932
#        316805
#
# Disc length: 4575 seconds
#
# Revision: 0
# Processed by: cddbd v1.5.2PL0 Copyright (c) Steve Scherf et al.
# Submitted via: ExactAudioCopy v0.95b4
#
DISCID=1211dd13
DTITLE=Eva Cassidy - DORUN Choice Best
DYEAR=2007
DGENRE=Country
TTITLE0=Imagin
TTITLE1=Ain't No Sunshine
TTITLE2=Natural Woman
TTITLE3=Oh,Had I a Golden Thread
TTITLE4=Over The Rainbow
TTITLE5=Say Goodbye
TTITLE6=Songbird
TTITLE7=Tenessee Waltz
TTITLE8=Time After Time
TTITLE9=Wade In The Water
TTITLE10=Yesterday
TTITLE11=It Don't Mean a Thing
TTITLE12=Need Your Love So Bad
TTITLE13=Honeysackle Rose
TTITLE14=Autumn Leaves
TTITLE15=Blue Skys
TTITLE16=Friend Of Gold
TTITLE17=Heaven
TTITLE18=When a Wonderful World
EXTD=
EXTT0=
EXTT1=
EXTT2=
EXTT3=
EXTT4=
EXTT5=
EXTT6=
EXTT7=
EXTT8=
EXTT9=
EXTT10=
EXTT11=
EXTT12=
EXTT13=
EXTT14=
EXTT15=
EXTT16=
EXTT17=
EXTT18=
PLAYORDER=
